# xmcd
#
# Track frame offsets: 
#        150
#        26532
#        46482
#        64395
#        80410
#        94507
#        114060
#        127472
#        146035
#        167097
#        188610
#        207425
#        229835
#        245335
#        275137
#        302522
#
# Disc length: 4394 seconds
#
# Revision: 3
# Processed by: cddbd v1.5.2PL0 Copyright (c) Steve Scherf et al.
# Submitted via: ExactAudioCopy v0.99pb4
#
DISCID=e3112810
DTITLE=lgt - a locomotiv gt osszes kislemeze
DYEAR=1992
DGENRE=
TTITLE0=ha volna szived
TTITLE1=boldog vagyok
TTITLE2=erints meg
TTITLE3=segits elaludni
TTITLE4=hej, gyere velem
TTITLE5=csak egy szora
TTITLE6=csavargok angyala
TTITLE7=szeress nagyon
TTITLE8=mindig csak ott varok rad
TTITLE9=mienk ez a cirkusz
TTITLE10=veled, csak veled
TTITLE11=annyi mindent nem szerettem meg
TTITLE12=pokolba mar a szep szavakkal
TTITLE13=kinn is vagyok, benn is vagyok
TTITLE14=segits nekem
TTITLE15=mar nem vigyazol ram
EXTD=
EXTT0=
EXTT1=
EXTT2=
EXTT3=
EXTT4=
EXTT5=
EXTT6=
EXTT7=
EXTT8=
EXTT9=
EXTT10=
EXTT11=
EXTT12=
EXTT13=
EXTT14=
EXTT15=
PLAYORDER=
